<mxfile host="app.diagrams.net" modified="2024-08-13T22:26:13.391Z" agent="Mozilla/5.0 (Windows NT 10.0; Win64; x64; rv:129.0) Gecko/20100101 Firefox/129.0" version="24.5.4" etag="T4O_VW5kVZaBXqKsfi_J" type="github">
  <diagram name="PÃ¡gina-1" id="sC5fTWGbnj0EXif1Bzky">
    <mxGraphModel>
      <root>
        <mxCell id="0" />
        <mxCell id="1" parent="0" />
      </root>
    </mxGraphModel>
  </diagram>
</mxfile>
